<?xml version="1.0" standalone="no"?>
<!DOCTYPE svg PUBLIC "-//W3C//DTD SVG 20010904//EN"
 "http://www.w3.org/TR/2001/REC-SVG-20010904/DTD/svg10.dtd">
<svg version="1.0" xmlns="http://www.w3.org/2000/svg"
 width="640.000000pt" height="640.000000pt" viewBox="0 0 640.000000 640.000000"
 preserveAspectRatio="xMidYMid meet">
<metadata>
Created by potrace 1.14, written by Peter Selinger 2001-2017
</metadata>
<g transform="translate(0.000000,640.000000) scale(0.100000,-0.100000)"
fill="#000000" stroke="none">
<path d="M3915 4954 c-256 -39 -459 -115 -650 -244 l-74 -50 -68 45 c-147 98
-339 176 -520 212 -133 26 -396 24 -530 -5 -590 -128 -1060 -601 -1227 -1238
-42 -162 -56 -281 -56 -486 0 -289 43 -515 143 -749 219 -512 621 -858 1128
-971 137 -30 415 -33 552 -5 187 38 374 114 532 217 l80 53 30 -18 c310 -186
506 -245 810 -245 237 0 416 40 620 139 66 32 152 80 192 107 388 266 646 689
728 1194 14 89 20 200 11 200 -2 0 -325 -133 -718 -296 -392 -163 -746 -307
-787 -320 -88 -29 -169 -39 -242 -30 -87 11 -87 10 -51 123 18 54 41 139 51
188 23 104 47 303 38 312 -4 3 -100 -33 -214 -80 -114 -47 -215 -87 -222 -89
-43 -9 -61 383 -27 560 10 50 21 94 25 96 4 3 99 -30 212 -73 112 -43 205 -77
207 -76 6 6 -29 191 -54 285 -13 52 -43 139 -64 193 -22 55 -38 103 -35 107 3
5 31 18 63 30 47 18 71 21 137 17 76 -4 123 -21 870 -305 699 -265 790 -298
793 -281 6 33 -38 236 -74 347 -187 572 -638 997 -1179 1114 -88 19 -359 33
-430 22z m-1462 -989 c93 -35 170 -65 173 -67 2 -2 -5 -27 -16 -55 -22 -58
-64 -220 -79 -308 -48 -272 -27 -615 54 -882 15 -47 23 -89 18 -93 -11 -11
-175 -78 -238 -98 -32 -11 -88 -16 -156 -17 -102 0 -107 1 -181 38 -99 48
-164 118 -223 241 -66 135 -86 229 -92 428 -4 130 -2 188 12 270 66 394 261
634 500 612 39 -3 120 -28 228 -69z"/>
</g>
</svg>
