<svg xmlns="http://www.w3.org/2000/svg" viewBox="0 0 749.31 122.2"><defs><style>.cls-1{fill:#ed730c;}.cls-1,.cls-2{fill-rule:evenodd;}.cls-2,.cls-3{fill:#035998;}</style></defs><g id="Layer_2" data-name="Layer 2"><g id="Camada_1" data-name="Camada 1"><path class="cls-1" d="M120.69,0C88.94,0,63.16,27.21,63.16,60.86s25.78,60.82,57.53,60.82c30.61,0,55.58-25.27,57.44-57.16L126.62,84.69c-40.7,17.46-35.36-63-5.3-51.68l56.44,20.31C174.26,23.3,150.07,0,120.69,0Z"></path><path class="cls-2" d="M57.49.53C25.73.53,0,27.74,0,61.39S25.73,122.2,57.49,122.2c30.6,0,55.64-25.26,57.43-57.15L63.48,85.21c-40.77,17.45-35.36-63-5.3-51.69l56.43,20.34C111.11,23.83,86.88.53,57.49.53Z"></path><path class="cls-2" d="M239.47,74.84v.89h0a.61.61,0,0,1-.08.37h0c0,.15,0,.23-.07.3s0,.22-.07.29h0a.32.32,0,0,1-.15.22h.08a1.8,1.8,0,0,1-.22.31h0c-.07.06-.16.22-.3.29s-.23.22-.44.45-.51.29-.81.51h0a13,13,0,0,1-1.19.66c-.37.15-.8.37-1.24.6h0c-.53.14-1,.37-1.63.51s-1.11.29-1.7.45a9.11,9.11,0,0,1-2,.29,20.73,20.73,0,0,1-2.15.15,30.34,30.34,0,0,1-3.69-.29,16.15,16.15,0,0,1-3.24-1,12.51,12.51,0,0,1-3-1.55A21.33,21.33,0,0,1,215.29,76h0a15,15,0,0,1-2-2.81,19.48,19.48,0,0,1-1.4-3.4,30.23,30.23,0,0,1-.89-4,29.18,29.18,0,0,1-.3-4.51,45.16,45.16,0,0,1,.3-4.58,30.05,30.05,0,0,1,1-4.14h0A26.73,26.73,0,0,1,213.51,49a14.52,14.52,0,0,1,2.07-3,12.73,12.73,0,0,1,2.5-2.36A14.24,14.24,0,0,1,221,42a17.38,17.38,0,0,1,3.38-1,20.63,20.63,0,0,1,3.71-.37,13.73,13.73,0,0,1,1.68.07c.51.09,1.1.15,1.62.24h0c.52.14,1,.22,1.55.35s1,.3,1.47.46h0a9.71,9.71,0,0,1,1.25.6h0a5.26,5.26,0,0,1,1.19.58,4.08,4.08,0,0,1,.87.59,1.94,1.94,0,0,1,.6.44l.37.37h0a.91.91,0,0,0,.23.29c.07.07.07.23.14.3h0c0,.08.08.15.08.3s.07.23.07.29,0,.31.07.37h0v.45h0v1.62h0c-.07.14-.07.3-.14.37h0a2.44,2.44,0,0,1-.08.37h0c-.07.15-.14.23-.14.3h0c-.07.07-.16.14-.23.22h0c-.07.08-.15.08-.21.15h0c-.16,0-.23.07-.3.07a1,1,0,0,1-.6-.22,3.25,3.25,0,0,1-.73-.44h0c-.22-.22-.51-.36-.81-.6l-1.1-.66h0a5.65,5.65,0,0,0-1.34-.74c-.44-.15-.95-.38-1.55-.6s-1.18-.29-1.84-.43a20.34,20.34,0,0,0-2.12-.15,9.78,9.78,0,0,0-2.52.29,11.5,11.5,0,0,0-2.14.74h0a8.28,8.28,0,0,0-1.92,1.26,7.83,7.83,0,0,0-1.63,1.78h0a11.27,11.27,0,0,0-1.33,2.21,13.59,13.59,0,0,0-1,2.66h0c-.23,1-.44,2-.6,3.1a28.3,28.3,0,0,0-.22,3.49,25,25,0,0,0,.82,6.58h0a11.68,11.68,0,0,0,1,2.5,11.81,11.81,0,0,0,1.25,2.15A11,11,0,0,0,221.4,74a18.55,18.55,0,0,0,2,1.17,20.28,20.28,0,0,0,2.28.75,14.08,14.08,0,0,0,2.6.22,21.17,21.17,0,0,0,2.14-.14h0a7.9,7.9,0,0,0,1.83-.45,8.5,8.5,0,0,0,1.56-.58,14.47,14.47,0,0,0,1.32-.68,6.38,6.38,0,0,0,1.1-.66c.37-.23.67-.44.88-.58a2.89,2.89,0,0,1,.75-.45,1.49,1.49,0,0,1,.67-.23c.06,0,.14.09.21.09s.16.06.23.06h0a2.28,2.28,0,0,0,.22.22h0c.07.09.07.15.14.23h0c0,.14.07.22.07.36s.08.3.08.45v1.1ZM239,44.53v.07m36.66,33.87c.06.29.14.44.2.66a1.16,1.16,0,0,1,.08.51h0a.94.94,0,0,1-.08.46h0a1.21,1.21,0,0,1-.2.29.44.44,0,0,1-.37.22h0a1.38,1.38,0,0,1-.62.15,2.35,2.35,0,0,0-.65.08h-1.62a2.53,2.53,0,0,0-.74-.08.89.89,0,0,1-.43-.07h0c-.15,0-.31-.08-.46-.08h0c-.07-.08-.22-.08-.28-.16a2.29,2.29,0,0,1-.23-.21h0c-.08-.07-.08-.14-.14-.22s-.07-.15-.16-.29h0l-3.31-9.4H250.67l-3.17,9.25h0c0,.15-.07.22-.07.29h0c-.07.07-.07.23-.15.3h0c-.06.07-.15.14-.22.22h0c-.07.06-.21.06-.29.14h0a2.8,2.8,0,0,1-.45.16c-.14,0-.29.07-.43.07h0a2.07,2.07,0,0,0-.67.08h-1.55a1.93,1.93,0,0,0-.67-.08,2.22,2.22,0,0,1-.49-.15h0a2.27,2.27,0,0,1-.38-.22,2.2,2.2,0,0,1-.23-.37c-.07-.08-.07-.22-.07-.44s.07-.3.07-.52a3.47,3.47,0,0,0,.23-.59h0l13.05-36.38h0a3,3,0,0,1,.22-.37c0-.06.07-.14.14-.28h0c.07-.09.23-.15.3-.24h0a.87.87,0,0,0,.37-.13c.15,0,.29-.08.52-.08a1,1,0,0,1,.51-.08c.22,0,.44-.06.74-.06h1.62c.3,0,.59.06.81.06A1.69,1.69,0,0,1,261,41c.15,0,.3.08.44.08h0a1.65,1.65,0,0,0,.37.13h0c.16.09.22.24.3.3s.23.16.23.3h0a2.92,2.92,0,0,0,.23.29h0l13.05,36.38ZM258.57,47.05l-6.41,18.69h13Zm49.64,32.59v.23c0,.15-.09.23-.09.3s-.14.14-.22.22a.4.4,0,0,1-.28.14c-.09.08-.23.08-.37.16s-.37.07-.53.07a1.84,1.84,0,0,0-.65.08h-.82a6.73,6.73,0,0,1-1.33-.08h0c-.14,0-.29-.07-.44-.07s-.29-.08-.37-.16H303c-.07-.08-.22-.14-.3-.22s-.15-.14-.22-.21a.73.73,0,0,1-.14-.3h-.07c0-.16-.08-.22-.08-.37l-3.61-9.24c-.23-.52-.44-1-.66-1.47s-.45-1-.67-1.41a11.53,11.53,0,0,0-.73-1.19,12.75,12.75,0,0,0-.82-1,5.33,5.33,0,0,0-1-.81,5.14,5.14,0,0,0-1.11-.6h0a10.85,10.85,0,0,0-1.32-.37,13.57,13.57,0,0,0-1.63-.14h-3.32V79.94h0c-.06.08-.06.16-.15.23h0a2.18,2.18,0,0,0-.21.22h0a.45.45,0,0,1-.3.14h0c-.07.08-.22.08-.36.16a1,1,0,0,0-.46.07h0a1.53,1.53,0,0,0-.59.08h-1.39a1.77,1.77,0,0,0-.6-.08h0a1.13,1.13,0,0,0-.44-.07c-.14-.08-.3-.08-.36-.16h0a.94.94,0,0,1-.37-.14l-.22-.22c0-.07-.08-.15-.08-.23h0a.55.55,0,0,1-.07-.3V43.35a1.92,1.92,0,0,1,.74-1.77h0a3.36,3.36,0,0,1,.66-.45,3.08,3.08,0,0,1,.74-.06h9.65a7.39,7.39,0,0,1,1.19.06h0c.44,0,1,.07,1.4.07l.36.09h0a18.32,18.32,0,0,1,2.15.51,15.63,15.63,0,0,1,1.92.75,10.62,10.62,0,0,1,1.62,1,11.11,11.11,0,0,1,1.32,1.25,6.61,6.61,0,0,1,1,1.4,7.33,7.33,0,0,1,.82,1.63h0a14,14,0,0,1,.43,1.78,18.82,18.82,0,0,1,.15,2,16.26,16.26,0,0,1-.15,1.91,7.18,7.18,0,0,1-.43,1.7,12.67,12.67,0,0,1-.59,1.48,6,6,0,0,1-1,1.33,4,4,0,0,1-1.1,1.12h0a6.07,6.07,0,0,1-1.33,1h0c-.44.31-1,.52-1.48.82-.37.15-.73.3-1.19.52.16.06.3.15.53.22h0c.29.22.51.43.8.66s.53.45.81.67.45.6.67.89a5.2,5.2,0,0,1,.74,1h0a7.45,7.45,0,0,1,.59,1.11,6.06,6.06,0,0,1,.58,1.26c.23.44.45.88.67,1.41l3.46,8.64h0c.16.37.3.67.37.89h0a6.24,6.24,0,0,0,.22.66h0a2.21,2.21,0,0,0,.09.37h0v.36ZM300,52.15a8.13,8.13,0,0,0-.29-2.07,4.48,4.48,0,0,0-.74-1.76,4.31,4.31,0,0,0-1.31-1.27,6.74,6.74,0,0,0-2-.89c-.23-.08-.52-.14-.82-.21s-.51-.08-.88-.08a4.27,4.27,0,0,0-1-.08h-5.6V58.51h4.87a12.34,12.34,0,0,0,3.54-.45h0a9.62,9.62,0,0,0,1.32-.58h0a6.6,6.6,0,0,0,1-.82h0a5.7,5.7,0,0,0,.88-.89,7.35,7.35,0,0,0,.52-1.11h0a6.69,6.69,0,0,0,.37-1.18,7.32,7.32,0,0,0,.14-1.33Zm41.81,27.49a.31.31,0,0,1-.06.23c0,.15,0,.23-.07.3s-.09.14-.23.22a.4.4,0,0,1-.29.14c-.08.08-.22.08-.37.16s-.3.07-.53.07a2.31,2.31,0,0,0-.65.08h-.82a6.37,6.37,0,0,1-1.31-.08h0c-.16,0-.3-.07-.46-.07s-.29-.08-.36-.16h0a.8.8,0,0,1-.29-.22,1.11,1.11,0,0,1-.3-.21c-.07-.08-.07-.23-.15-.3h0c-.07-.16-.07-.22-.15-.37l-3.61-9.24c-.23-.52-.36-1-.58-1.47s-.45-1-.67-1.41-.52-.82-.75-1.19-.58-.66-.88-1a4.39,4.39,0,0,0-1-.81,5.37,5.37,0,0,0-1.17-.6h0a6.65,6.65,0,0,0-1.33-.37,13.57,13.57,0,0,0-1.62-.14H321V79.64a.55.55,0,0,1-.07.3h0c0,.08-.08.16-.08.23h-.07c0,.07-.08.14-.21.22h0a.5.5,0,0,1-.31.14h0c-.06.08-.22.08-.37.16a1,1,0,0,0-.44.07h0a1.69,1.69,0,0,0-.59.08h-1.39a1.55,1.55,0,0,0-.6-.08h0a1,1,0,0,0-.44-.07c-.15-.08-.29-.08-.37-.16h0a.4.4,0,0,1-.29-.14c-.08-.08-.23-.15-.23-.22s-.07-.15-.14-.23h0V43.35a2.1,2.1,0,0,1,.66-1.77h0a2.62,2.62,0,0,1,.74-.45,2.73,2.73,0,0,1,.73-.06h9.67a6.76,6.76,0,0,1,1.1.06h0c.44,0,1,.07,1.41.07l.37.09h0a19.5,19.5,0,0,1,2.13.51,11.7,11.7,0,0,1,1.91.75,9.43,9.43,0,0,1,1.63,1,8.59,8.59,0,0,1,2.44,2.65,11,11,0,0,1,.73,1.63h0a7.6,7.6,0,0,1,.44,1.78,8.9,8.9,0,0,1,.15,2,7.92,7.92,0,0,1-.15,1.91,12.14,12.14,0,0,1-.36,1.7c-.22.51-.45,1-.67,1.48a9.58,9.58,0,0,1-.88,1.33,7.85,7.85,0,0,1-1.11,1.12h0a14.76,14.76,0,0,1-1.33,1h0c-.51.31-1,.52-1.55.82-.36.15-.73.3-1.17.52a2.77,2.77,0,0,1,.51.22h0l.89.66c.23.22.52.45.73.67s.52.6.74.89a11.55,11.55,0,0,1,.66,1h0a5.91,5.91,0,0,1,.66,1.11c.16.37.38.81.59,1.26a14.63,14.63,0,0,1,.59,1.41l3.55,8.64h0c.15.37.22.67.29.89h0a1.84,1.84,0,0,1,.23.66h0a.88.88,0,0,1,.07.37h0a1,1,0,0,1,.06.36Zm-8.24-27.49a8.83,8.83,0,0,0-.23-2.07,6.21,6.21,0,0,0-.82-1.76,4.42,4.42,0,0,0-1.25-1.27,7.52,7.52,0,0,0-2.06-.89,6.62,6.62,0,0,0-.73-.21c-.31,0-.59-.08-.89-.08a4.49,4.49,0,0,0-1.1-.08H321V58.51h4.87a11.76,11.76,0,0,0,3.46-.45h0a7.12,7.12,0,0,0,1.34-.58h0c.36-.24.72-.53,1.09-.82h0a4.53,4.53,0,0,0,.81-.89,6.31,6.31,0,0,0,.59-1.11h0a5.68,5.68,0,0,0,.3-1.18,8.33,8.33,0,0,0,.16-1.33Zm37.53,26.1c0,.37-.07.73-.07,1a.61.61,0,0,0-.08.36c-.08.16-.15.23-.15.38h0a1.55,1.55,0,0,0-.22.29c-.07.08-.14.08-.22.14h0c-.08.08-.15.08-.29.16H351a2.31,2.31,0,0,1-.73-.08,3.24,3.24,0,0,1-.66-.43h0a1.21,1.21,0,0,1-.59-.74h0a4.06,4.06,0,0,1-.16-1v-35a2,2,0,0,1,.75-1.77h0a3.36,3.36,0,0,1,.66-.45,3,3,0,0,1,.73-.06h18.52a.89.89,0,0,1,.59.13h0c.07.09.14.09.22.24h0a.32.32,0,0,1,.15.22c.07.14.15.21.15.36h0c0,.15.07.24.07.38h0a1.29,1.29,0,0,1,.07.51V44a1,1,0,0,1-.07.44h0c0,.13-.07.29-.07.36h0c-.08.15-.08.23-.15.37a.32.32,0,0,1-.15.22h0l-.22.23h0c-.07.08-.16.08-.29.08a.44.44,0,0,1-.3.06H354.5V57.63h12.92c.07,0,.22.07.29.07h0c.08,0,.16,0,.3.15h0c.08.06.14.06.14.14h0a2.1,2.1,0,0,1,.22.3h0c.08.07.08.22.16.28s.07.31.07.44a4.07,4.07,0,0,1,.08,1.05,3.66,3.66,0,0,1-.08,1h0c0,.13-.07.29-.07.36s-.08.23-.16.36h0a1.2,1.2,0,0,1-.22.23.34.34,0,0,1-.22.14h0c-.06.09-.14.09-.22.16H354.5v13.6h15.28a1.51,1.51,0,0,1,.59.15h0c.08.07.15.15.22.22s.15.15.15.22h0a2,2,0,0,1,.22.38h0a.83.83,0,0,0,.08.37v.51c0,.15.07.37.07.52Zm34.5,1.39c0,.09-.06.16-.06.23s0,.23-.08.3-.08.14-.22.22a.43.43,0,0,1-.3.14c-.07.08-.22.08-.37.16s-.29.07-.5.07a2.46,2.46,0,0,0-.68.08h-.8a6.63,6.63,0,0,1-1.33-.08h0c-.16,0-.3-.07-.44-.07s-.31-.08-.37-.16h0l-.38-.22-.21-.21a.59.59,0,0,1-.16-.3h0c-.06-.16-.14-.22-.14-.37L396,70.19c-.22-.52-.43-1-.58-1.47a14.64,14.64,0,0,0-.74-1.41c-.23-.38-.45-.82-.67-1.19s-.59-.66-.89-1a4.39,4.39,0,0,0-1-.81,5.61,5.61,0,0,0-1.17-.6h0a6.47,6.47,0,0,0-1.33-.37,12.88,12.88,0,0,0-1.61-.14h-3.24V79.64c0,.09-.08.16-.08.3h0c0,.08-.08.16-.15.23h0c0,.07-.15.14-.22.22h0a.43.43,0,0,1-.3.14h0c-.06.08-.22.08-.37.16a1,1,0,0,0-.44.07h0a1.61,1.61,0,0,0-.58.08h-1.41a1.69,1.69,0,0,0-.59-.08h0a1,1,0,0,0-.44-.07c-.15-.08-.3-.08-.38-.16h0a.47.47,0,0,1-.29-.14c-.14-.08-.22-.15-.22-.22a.34.34,0,0,1-.14-.23h0V43.35a2.12,2.12,0,0,1,.65-1.77h0a4.14,4.14,0,0,1,.67-.45,3.73,3.73,0,0,1,.81-.06h9.66a6.89,6.89,0,0,1,1.11.06h0c.43,0,1,.07,1.39.07l.37.09h0a18.14,18.14,0,0,1,2.14.51,15.18,15.18,0,0,1,1.93.75,11.13,11.13,0,0,1,1.62,1,7.23,7.23,0,0,1,1.33,1.25,7,7,0,0,1,1.11,1.4,11,11,0,0,1,.72,1.63h0a7.63,7.63,0,0,1,.45,1.78,18.82,18.82,0,0,1,.14,2,8.47,8.47,0,0,1-.14,1.91,12.12,12.12,0,0,1-.37,1.7c-.22.51-.45,1-.66,1.48A9.58,9.58,0,0,1,401.2,58,5.22,5.22,0,0,1,400,59.11h0a7.73,7.73,0,0,1-1.25,1h0c-.52.31-1,.52-1.54.82-.38.15-.75.3-1.19.52a2.28,2.28,0,0,1,.51.22h0a7.29,7.29,0,0,1,.83.66c.27.22.57.45.8.67s.52.6.73.89a11.53,11.53,0,0,1,.67,1h0a4,4,0,0,1,.59,1.11c.22.37.45.81.67,1.26s.37.88.6,1.41l3.45,8.64h0c.14.37.3.67.37.89h0a3,3,0,0,0,.22.66h0a2.44,2.44,0,0,0,.08.37h0a2.9,2.9,0,0,0,.06.36Zm-8.24-27.49a5.86,5.86,0,0,0-.31-2.07,4.35,4.35,0,0,0-.75-1.76A4,4,0,0,0,395,47.05a6.28,6.28,0,0,0-2-.89c-.23-.08-.53-.14-.74-.21s-.59-.08-.89-.08a4.74,4.74,0,0,0-1.09-.08h-5.53V58.51h4.85a11.76,11.76,0,0,0,3.46-.45h0a10.31,10.31,0,0,0,1.33-.58h0c.37-.24.74-.53,1.12-.82h0a5.14,5.14,0,0,0,.79-.89,8.2,8.2,0,0,0,.61-1.11h0a8.51,8.51,0,0,0,.3-1.18,9.66,9.66,0,0,0,.15-1.33Zm45,26.32a5.08,5.08,0,0,0,.22.66c0,.15.08.37.08.51h0a.94.94,0,0,1-.08.46h0a1.55,1.55,0,0,1-.22.29c-.15.14-.22.22-.37.22h0a1.32,1.32,0,0,1-.59.15,2.3,2.3,0,0,0-.66.08H439.1a2.59,2.59,0,0,0-.75-.08,1,1,0,0,1-.43-.07h0c-.16,0-.28-.08-.44-.08h0c-.07-.08-.23-.08-.3-.16s-.14-.14-.22-.21h0c-.08-.07-.08-.14-.15-.22a1.31,1.31,0,0,1-.14-.29h0l-3.33-9.4H417.42l-3.17,9.25h0c0,.15-.09.22-.09.29h0c-.05.07-.05.23-.14.3h0l-.22.22h0c-.07.06-.21.06-.29.14h0c-.15.08-.29.08-.45.16s-.29.07-.44.07h0a2.16,2.16,0,0,0-.67.08h-1.53a2,2,0,0,0-.68-.08,2.9,2.9,0,0,1-.51-.15h0c-.14-.08-.29-.16-.37-.22a.42.42,0,0,1-.23-.37.81.81,0,0,1-.06-.44,1.76,1.76,0,0,1,.06-.52,3.47,3.47,0,0,0,.23-.59h0l13.05-36.38h0c.08-.14.16-.22.16-.37a.72.72,0,0,0,.2-.28h0c.09-.09.23-.15.31-.24h0c.15,0,.21-.07.37-.13s.29-.08.44-.08a1.51,1.51,0,0,1,.59-.08c.24,0,.44-.06.73-.06h1.63c.3,0,.51.06.73.06a1.34,1.34,0,0,1,.6.08c.23,0,.37.08.51.08h0a1.65,1.65,0,0,0,.37.13h0c.16.09.22.24.29.3s.15.16.23.3h0a.56.56,0,0,1,.14.29h0l13.14,36.38ZM425.3,47.05l-6.41,18.69h13ZM489,74.84v.53h0v.36c0,.15-.09.23-.09.37h0c0,.15,0,.23-.06.3h0c0,.15-.07.22-.07.29a.32.32,0,0,1-.15.22h0a.5.5,0,0,1-.14.31h0c-.08.06-.17.22-.29.29s-.32.22-.53.45-.44.29-.81.51h0a6.92,6.92,0,0,1-1.11.66c-.37.15-.82.37-1.33.6h0c-.44.14-1,.37-1.54.51s-1.11.29-1.77.45a7.88,7.88,0,0,1-1.93.29c-.73.07-1.39.15-2.14.15a30,30,0,0,1-3.68-.29,16.29,16.29,0,0,1-3.32-1,14.28,14.28,0,0,1-2.88-1.55A17.69,17.69,0,0,1,464.69,76h0a22.24,22.24,0,0,1-1.92-2.81,21.16,21.16,0,0,1-1.4-3.4,30.23,30.23,0,0,1-.88-4,29.23,29.23,0,0,1-.29-4.51,29.91,29.91,0,0,1,.29-4.58,20.25,20.25,0,0,1,1-4.14h0A23.3,23.3,0,0,1,463,49a17,17,0,0,1,2-3,15.13,15.13,0,0,1,2.58-2.36A12.76,12.76,0,0,1,470.52,42a15.93,15.93,0,0,1,3.39-1,20.59,20.59,0,0,1,3.69-.37,14.14,14.14,0,0,1,1.71.07c.51.09,1.09.15,1.6.24h0c.52.14,1,.22,1.57.35s.94.3,1.46.46h0a11.36,11.36,0,0,1,1.26.6h0a6.55,6.55,0,0,1,1.19.58,4.56,4.56,0,0,1,.86.59,1.76,1.76,0,0,1,.59.44h0c.15.16.32.3.37.37h0a.81.81,0,0,0,.24.29.51.51,0,0,0,.14.3.53.53,0,0,0,.08.3c0,.07,0,.23.07.29s0,.31.07.37h0v1a5.16,5.16,0,0,1-.07,1.1h0c0,.14,0,.3-.07.37h0a2.44,2.44,0,0,1-.08.37h0c-.08.15-.14.23-.14.3h0a2.5,2.5,0,0,0-.24.22h0c0,.08-.14.08-.28.15h0c-.09,0-.14.07-.23.07a1.35,1.35,0,0,1-.66-.22,2.32,2.32,0,0,1-.65-.44h0c-.31-.22-.53-.36-.9-.6a10.47,10.47,0,0,0-1-.66h0a7.54,7.54,0,0,0-1.31-.74c-.46-.15-1-.38-1.55-.6h0c-.6-.13-1.19-.29-1.85-.43a20.45,20.45,0,0,0-2.23-.15,9.59,9.59,0,0,0-2.42.29,11.5,11.5,0,0,0-2.14.74h0a8.26,8.26,0,0,0-2,1.26,12.09,12.09,0,0,0-1.63,1.78h0A23.47,23.47,0,0,0,468,51.78a20.18,20.18,0,0,0-1,2.66h0a18.72,18.72,0,0,0-.6,3.1,28.28,28.28,0,0,0-.23,3.49,22,22,0,0,0,.83,6.58h0a8.88,8.88,0,0,0,1,2.5,12.4,12.4,0,0,0,1.23,2.15,12.08,12.08,0,0,0,1.64,1.7,13,13,0,0,0,2,1.17,19,19,0,0,0,2.28.75,13.66,13.66,0,0,0,2.52.22,20.54,20.54,0,0,0,2.2-.14h0a8.07,8.07,0,0,0,1.85-.45,10.85,10.85,0,0,0,1.55-.58,14.47,14.47,0,0,0,1.32-.68,6.13,6.13,0,0,0,1.11-.66c.37-.23.68-.44.89-.58a2.41,2.41,0,0,1,.73-.45,1.35,1.35,0,0,1,.66-.23c.08,0,.17.09.22.09h0c.07,0,.16.06.24.06h0a1.52,1.52,0,0,0,.22.22c.07.09.07.15.14.23h0c0,.14.06.22.06.36a.79.79,0,0,0,.09.45v1.1Zm36.13,3.63c.07.29.15.44.22.66s.08.37.08.51a.94.94,0,0,1-.08.46h0a1.21,1.21,0,0,1-.22.29c-.15.14-.22.22-.44.22h0a1,1,0,0,1-.51.15,2.27,2.27,0,0,0-.66.08h-1.62a2.73,2.73,0,0,0-.76-.08,1,1,0,0,1-.44-.07h0c-.22,0-.28-.08-.43-.08h0c-.16-.08-.22-.08-.3-.16l-.22-.21h0c-.07-.07-.07-.14-.15-.22h0a1.87,1.87,0,0,1-.15-.29h0l-3.32-9.4H500.15L497,79.58h0c0,.15-.09.22-.09.29h0a.61.61,0,0,0-.15.3h0l-.22.22c-.14.06-.21.06-.28.14h0c-.16.08-.3.08-.44.16s-.29.07-.45.07h0a1.87,1.87,0,0,0-.66.08h-1.55a1.84,1.84,0,0,0-.66-.08,2.28,2.28,0,0,1-.51-.15h0a1.78,1.78,0,0,1-.37-.22h0a.4.4,0,0,1-.23-.37c-.08-.08-.08-.22-.08-.44a1.34,1.34,0,0,1,.08-.52,2.41,2.41,0,0,1,.23-.59h0l13.05-36.38h0c.06-.14.15-.22.15-.37a1.59,1.59,0,0,0,.22-.28h0c.06-.09.22-.15.28-.24h0a.82.82,0,0,0,.37-.13h0c.15,0,.3-.08.44-.08a1.51,1.51,0,0,1,.59-.08c.24,0,.46-.06.74-.06h1.62c.3,0,.53.06.76.06a1.32,1.32,0,0,1,.58.08c.22,0,.37.08.51.08a1.5,1.5,0,0,0,.37.13h0a.72.72,0,0,1,.3.3h0a1.29,1.29,0,0,1,.22.3.56.56,0,0,1,.14.29h0l13.13,36.38Zm-17-31.42-6.41,18.69h13Zm49.64,32.59v.23c0,.15-.07.23-.07.3a1.45,1.45,0,0,0-.21.22.91.91,0,0,1-.31.14c-.15.08-.22.08-.37.16s-.38.07-.52.07a1.87,1.87,0,0,0-.66.08h-.81a5.85,5.85,0,0,1-1.33-.08h0c-.15,0-.3-.07-.44-.07s-.29-.08-.45-.16h0c-.08-.08-.22-.14-.29-.22h0L552,80.1h0c-.08-.08-.16-.23-.22-.3h0c0-.16-.07-.22-.15-.37l-3.54-9.24c-.22-.52-.44-1-.66-1.47s-.44-1-.67-1.41a10,10,0,0,0-.73-1.19,12.59,12.59,0,0,0-.81-1,4.61,4.61,0,0,0-1-.81,6.66,6.66,0,0,0-1.11-.6h0a8.78,8.78,0,0,0-1.39-.37,12.39,12.39,0,0,0-1.56-.14h-3.31V79.94h0c-.07.08-.07.16-.15.23h0l-.23.22a.67.67,0,0,1-.28.14h0c-.16.08-.23.08-.37.16a.93.93,0,0,0-.44.07h0a1.32,1.32,0,0,0-.59.08h-1.41a1.72,1.72,0,0,0-.59-.08h0a1.5,1.5,0,0,0-.51-.07c-.08-.08-.23-.08-.37-.16a.56.56,0,0,1-.29-.14l-.24-.22c0-.07-.06-.15-.06-.23h0a.5.5,0,0,1-.08-.3V43.35a1.92,1.92,0,0,1,.74-1.77h0a3.68,3.68,0,0,1,.66-.45,3.08,3.08,0,0,1,.74-.06H543a5.79,5.79,0,0,1,1.1.06h0c.52,0,1,.07,1.48.07l.3.09H546a18.63,18.63,0,0,1,2.14.51,14.33,14.33,0,0,1,1.91.75,9.43,9.43,0,0,1,1.63,1c.45.36.88.81,1.33,1.25a11.29,11.29,0,0,1,1,1.4,13.75,13.75,0,0,1,.81,1.63h0c.15.59.28,1.18.43,1.78a14.71,14.71,0,0,1,.14,2,12.9,12.9,0,0,1-.14,1.91,6.73,6.73,0,0,1-.43,1.7,5.54,5.54,0,0,1-.68,1.48,3.86,3.86,0,0,1-.88,1.33,4.92,4.92,0,0,1-1.11,1.12,6,6,0,0,1-1.32,1h0c-.45.31-1,.52-1.47.82a8.15,8.15,0,0,0-1.18.52l.44.22h0c.28.22.59.43.88.66s.51.45.81.67.45.6.66.89a11.53,11.53,0,0,1,.67,1h0a7.23,7.23,0,0,1,.66,1.11,6.08,6.08,0,0,1,.59,1.26c.22.44.45.88.68,1.41L557,77.36h0a4,4,0,0,0,.39.89h0a2.56,2.56,0,0,0,.21.66h0c0,.15,0,.31.07.37v.36Zm-8.26-27.49a8.37,8.37,0,0,0-.22-2.07,6.1,6.1,0,0,0-.74-1.76,4.22,4.22,0,0,0-1.34-1.27,7,7,0,0,0-2-.89,7.42,7.42,0,0,0-.82-.21c-.29,0-.58-.08-.87-.08a4.27,4.27,0,0,0-1-.08h-5.6V58.51h4.87a11.81,11.81,0,0,0,3.46-.45h0a5.85,5.85,0,0,0,1.33-.58h0a4.85,4.85,0,0,0,1.1-.82h0a3.26,3.26,0,0,0,.82-.89,4.44,4.44,0,0,0,.59-1.11h0a8.91,8.91,0,0,0,.37-1.18,8.35,8.35,0,0,0,.07-1.33Zm45.36,26.1c0,.22-.08.45-.08.59s-.08.38-.15.59h0a1.51,1.51,0,0,1-.29.37,1.35,1.35,0,0,1-.3.37h0a1.89,1.89,0,0,1-.37.22,2.89,2.89,0,0,0-.43.22h0a3.22,3.22,0,0,1-.39.08c-.14,0-.28.07-.43.07h-1.69c-.22,0-.53-.07-.75-.07a2.11,2.11,0,0,1-.66-.16h0a5.38,5.38,0,0,1-.59-.22,2.92,2.92,0,0,1-.59-.44h0A6,6,0,0,1,587,78.7h0a5.69,5.69,0,0,0-.58-.9h0c-.14-.29-.37-.66-.6-1.11L573.47,54.44c-.29-.59-.66-1.19-1-1.78s-.66-1.26-1-1.83h0c-.36-.68-.66-1.26-1-1.86a9.23,9.23,0,0,1-.52-1.11v1.41a20.5,20.5,0,0,0,.08,2.21h0V79.64a.26.26,0,0,1-.08.23v.07a.29.29,0,0,1-.07.23h0l-.22.22h0a.41.41,0,0,1-.3.14h0c-.14.08-.21.08-.36.16a1,1,0,0,0-.45.07,1.72,1.72,0,0,0-.59.08h-1.33a1.08,1.08,0,0,0-.5-.08,1.06,1.06,0,0,0-.46-.07c-.13-.08-.22-.08-.35-.16s-.24-.08-.31-.14-.15-.15-.15-.22a.39.39,0,0,1-.14-.3c0-.07-.07-.14-.07-.23V43.51A2.5,2.5,0,0,1,565,42.4a1.68,1.68,0,0,1,.59-.82h0a3.1,3.1,0,0,1,.75-.38,1.61,1.61,0,0,1,.8-.13h3.33c.22.06.44.06.66.13h0a.85.85,0,0,1,.59.24h0a1.19,1.19,0,0,1,.52.28,2.91,2.91,0,0,1,.51.45,6.44,6.44,0,0,1,.45.59h0a7.45,7.45,0,0,1,.51.75c.14.21.29.52.45.81l9.5,17.21h0c.52,1,1.11,2,1.64,3l.06.08c.29.52.52,1,.81,1.48s.53,1,.73,1.48c.53,1,1,2,1.55,2.88.23.51.53,1,.75,1.41l.3.66V70.92c0-.88-.08-1.7-.08-2.57v-5h0V42.09a.26.26,0,0,1,.08-.22h0c0-.07.06-.15.06-.21v-.08c.09-.08.16-.14.22-.14s.23-.15.3-.24.23-.07.38-.13a.84.84,0,0,0,.43-.08h.59a1.71,1.71,0,0,1,.66-.08c.45,0,.82.08,1.19.08a.83.83,0,0,0,.44.08h0a1.5,1.5,0,0,0,.37.13h0c.08.09.22.15.29.24h0c.08,0,.15.06.15.22h0c.07.06.15.14.15.21s.08.15.08.22Zm32.08,0a3.73,3.73,0,0,1-.09,1,.65.65,0,0,1-.07.36.8.8,0,0,1-.14.38h0c0,.08-.07.15-.15.29s-.14.08-.22.14h0c-.08.08-.22.08-.3.16h-19a2.07,2.07,0,0,1-.73-.08,4.4,4.4,0,0,1-.74-.43h0a1.61,1.61,0,0,1-.51-.74h0a4.08,4.08,0,0,1-.15-1v-35a2.07,2.07,0,0,1,.66-1.77h0a4.58,4.58,0,0,1,.74-.45,2.73,2.73,0,0,1,.73-.06H625.4a1,1,0,0,1,.58.13h0c.07.09.14.09.22.24h0c.08.06.16.14.16.22a3.31,3.31,0,0,0,.14.36h0c0,.15.07.24.07.38h0c0,.15.07.36.07.51V44c0,.14-.07.29-.07.44h0c0,.13-.07.29-.07.36h0a3.44,3.44,0,0,0-.14.37c-.08.08-.08.16-.16.22h0l-.22.23h0a.43.43,0,0,1-.29.08.42.42,0,0,1-.29.06H610.34V57.63h12.91c.07,0,.22.07.3.07h0q.11,0,.21.15h0c.08.06.16.06.23.14h0c.07.07.14.22.23.3h0a.48.48,0,0,0,.13.28.79.79,0,0,0,.08.44c0,.3.07.61.07,1.05s-.07.67-.07,1h0a.69.69,0,0,0-.08.36.79.79,0,0,0-.13.36h0L624,62a.38.38,0,0,1-.23.14h0c-.07.09-.14.09-.21.16H610.34v13.6h15.27a1.83,1.83,0,0,1,.59.15h0a2.28,2.28,0,0,1,.22.22c.08.08.08.15.15.22h0a.6.6,0,0,1,.14.38h0c.07.06.07.2.07.37a.88.88,0,0,1,.09.51v.52Zm13.72,1.39c0,.09-.08.16-.08.3h0c0,.08-.08.16-.15.23h0c0,.07-.06.14-.22.22a.43.43,0,0,1-.3.14h0c-.06.08-.22.08-.36.16a1.06,1.06,0,0,0-.45.07h0a1.46,1.46,0,0,0-.58.08H637a1.51,1.51,0,0,0-.59-.08,1,1,0,0,0-.45-.07h0c-.14-.08-.28-.08-.36-.16a.85.85,0,0,1-.36-.14l-.23-.22c0-.07-.07-.15-.07-.23h0c0-.14-.08-.21-.08-.3V42c0-.07.08-.22.08-.3h0c0-.06.07-.14.15-.22h0l.22-.21h0a.43.43,0,0,1,.29-.16h0a3.88,3.88,0,0,0,.45-.14,1.13,1.13,0,0,0,.43-.08,2.25,2.25,0,0,0,.6-.06h1.33a1.91,1.91,0,0,0,.58.06h0a.94.94,0,0,0,.45.08c.14.08.3.08.36.14h0a.35.35,0,0,1,.3.16h0c.16.06.22.15.22.21h0c.07.08.15.16.15.22h0c0,.15.08.23.08.3Zm36.41,0a.31.31,0,0,1-.06.23c0,.15,0,.23-.07.3s-.07.14-.22.22a.45.45,0,0,1-.31.14c-.06.08-.22.08-.35.16s-.3.07-.53.07a2.3,2.3,0,0,0-.66.08H674a6.58,6.58,0,0,1-1.33-.08h0c-.15,0-.28-.07-.45-.07s-.29-.08-.36-.16h0a1.11,1.11,0,0,1-.3-.22h0a.84.84,0,0,1-.28-.21h0c-.08-.08-.08-.23-.16-.3h0a3.44,3.44,0,0,1-.14-.37l-3.62-9.24a8.49,8.49,0,0,0-.58-1.47c-.25-.45-.46-1-.67-1.41s-.52-.82-.75-1.19-.58-.66-.86-1a4.75,4.75,0,0,0-1-.81,5.37,5.37,0,0,0-1.17-.6h0a6.65,6.65,0,0,0-1.33-.37,13.39,13.39,0,0,0-1.63-.14h-3.23V79.64a.5.5,0,0,1-.08.3h0c0,.08-.07.16-.07.23h-.08c0,.07-.08.14-.22.22a.42.42,0,0,1-.29.14h0c-.07.08-.22.08-.38.16a1,1,0,0,0-.43.07h0a1.69,1.69,0,0,0-.59.08H652.6a1.46,1.46,0,0,0-.58-.08h0a1,1,0,0,0-.44-.07c-.17-.08-.3-.08-.38-.16a.44.44,0,0,1-.29-.14c-.07-.08-.16-.15-.21-.22s-.09-.15-.16-.23h0V43.35a2.07,2.07,0,0,1,.66-1.77h0a2.62,2.62,0,0,1,.74-.45,2.77,2.77,0,0,1,.73-.06h9.67a6.29,6.29,0,0,1,1.1.06h0c.45,0,1,.07,1.41.07l.37.09h0a19,19,0,0,1,2.13.51,11.35,11.35,0,0,1,1.91.75,9.43,9.43,0,0,1,1.63,1,10.42,10.42,0,0,1,1.4,1.25,9.53,9.53,0,0,1,1,1.4,10.1,10.1,0,0,1,.74,1.63h0a7.63,7.63,0,0,1,.45,1.78,9.53,9.53,0,0,1,.14,2,8.47,8.47,0,0,1-.14,1.91,12.12,12.12,0,0,1-.37,1.7c-.22.51-.45,1-.68,1.48a8.07,8.07,0,0,1-.88,1.33,7.33,7.33,0,0,1-1.1,1.12,14.76,14.76,0,0,1-1.33,1h0c-.52.31-.95.52-1.55.82-.37.15-.74.3-1.17.52a3.25,3.25,0,0,1,.52.22h0c.28.22.59.43.88.66s.52.45.73.67.53.6.75.89.43.66.66,1h0a7.23,7.23,0,0,1,.66,1.11c.15.37.37.81.58,1.26s.37.88.6,1.41l3.53,8.64h0a5.93,5.93,0,0,0,.31.89h0a1.6,1.6,0,0,1,.22.66h0a.88.88,0,0,1,.07.37,1,1,0,0,1,.06.36Zm-8.25-27.49a8.92,8.92,0,0,0-.21-2.07,10.35,10.35,0,0,0-.74-1.76,7,7,0,0,0-1.33-1.27,7.87,7.87,0,0,0-2.07-.89,6.84,6.84,0,0,0-.74-.21c-.29,0-.6-.08-.88-.08a4.53,4.53,0,0,0-1.1-.08h-5.53V58.51H661a12,12,0,0,0,3.48-.45h0a6,6,0,0,0,1.32-.58h0c.36-.24.71-.53,1.1-.82h0a5.26,5.26,0,0,0,.81-.89,7.05,7.05,0,0,0,.59-1.11h0a5.65,5.65,0,0,0,.29-1.18,7.32,7.32,0,0,0,.15-1.33Zm47.86,8.21a42.22,42.22,0,0,1-.22,4.58,33.74,33.74,0,0,1-.87,4.06,18.49,18.49,0,0,1-1.42,3.56,15,15,0,0,1-2,3h0A14.78,14.78,0,0,1,709.62,78h0a13.49,13.49,0,0,1-3.1,1.77h0a16,16,0,0,1-3.7,1.11,26.78,26.78,0,0,1-4.27.36,23.63,23.63,0,0,1-4.12-.3,17.48,17.48,0,0,1-3.56-1h0a12.35,12.35,0,0,1-2.93-1.62h0A11.82,11.82,0,0,1,685.5,76a11.66,11.66,0,0,1-1.84-2.81,21.19,21.19,0,0,1-1.35-3.48,36.09,36.09,0,0,1-.8-4q-.21-2.22-.21-4.65a29.38,29.38,0,0,1,1.1-8.43h0A26.35,26.35,0,0,1,683.79,49a18.92,18.92,0,0,1,2-3h0a14.55,14.55,0,0,1,2.58-2.42,15.31,15.31,0,0,1,3.1-1.71,14.36,14.36,0,0,1,3.68-1.1,18.54,18.54,0,0,1,4.21-.38,23.31,23.31,0,0,1,4,.29A17,17,0,0,1,710,43.43a12.06,12.06,0,0,1,2.44,2.22,15,15,0,0,1,1.84,2.81,22.35,22.35,0,0,1,1.33,3.48h0a20.42,20.42,0,0,1,.8,3.89,42.29,42.29,0,0,1,.22,4.53Zm-5.91.37a23.72,23.72,0,0,0-.14-3.19c-.06-1-.2-2-.35-3a23.5,23.5,0,0,0-.82-2.64,8.19,8.19,0,0,0-1.18-2.23,9.23,9.23,0,0,0-1.55-1.85,13.23,13.23,0,0,0-2-1.4h0a8.63,8.63,0,0,0-2.5-.81,16.71,16.71,0,0,0-6.2,0,10.23,10.23,0,0,0-2.5,1,9.51,9.51,0,0,0-2,1.4,8.53,8.53,0,0,0-1.62,1.94h0a16,16,0,0,0-1.26,2.21,21.61,21.61,0,0,0-.81,2.67,29.18,29.18,0,0,0-.58,5.83c0,1.19.08,2.29.14,3.33a19.56,19.56,0,0,0,.44,3,13.78,13.78,0,0,0,.75,2.66A13,13,0,0,0,689.7,72a9.09,9.09,0,0,0,1.54,1.78,11,11,0,0,0,2,1.39h0a8.27,8.27,0,0,0,2.53.83,16.66,16.66,0,0,0,6.19,0,10.18,10.18,0,0,0,2.58-1h0a12.4,12.4,0,0,0,2.07-1.41,11.25,11.25,0,0,0,1.54-1.93h0a13.43,13.43,0,0,0,1.26-2.29h0a13.78,13.78,0,0,0,.74-2.66,17,17,0,0,0,.43-2.88,22.39,22.39,0,0,0,.14-3.1Z"></path><path class="cls-3" d="M749.31,48.51a8.26,8.26,0,1,1-8.24-8A8.07,8.07,0,0,1,749.31,48.51Zm-14.46,0a6.22,6.22,0,0,0,6.27,6.42,6.16,6.16,0,0,0,6.13-6.37,6.2,6.2,0,1,0-12.4-.05Zm4.95,4.21h-1.87v-8a17.06,17.06,0,0,1,3.09-.24,5,5,0,0,1,2.8.59,2.22,2.22,0,0,1,.78,1.76,2.06,2.06,0,0,1-1.67,1.86v.1a2.37,2.37,0,0,1,1.47,2,6.34,6.34,0,0,0,.59,2h-2a6.9,6.9,0,0,1-.63-2c-.15-.88-.64-1.27-1.67-1.27h-.88Zm.05-4.56h.88c1,0,1.86-.34,1.86-1.17s-.54-1.23-1.72-1.23a4.24,4.24,0,0,0-1,.1Z"></path></g></g></svg>