<?xml version="1.0" encoding="utf-8"?>
<!-- Generator: Adobe Illustrator 27.2.0, SVG Export Plug-In . SVG Version: 6.00 Build 0)  -->
<svg version="1.1" id="Layer_1" xmlns="http://www.w3.org/2000/svg" xmlns:xlink="http://www.w3.org/1999/xlink" x="0px" y="0px"
	 viewBox="0 0 222.3 178.2" style="enable-background:new 0 0 222.3 178.2;" xml:space="preserve">
<style type="text/css">
	.st0{fill-rule:evenodd;clip-rule:evenodd;fill:#ED730C;}
	.st1{fill-rule:evenodd;clip-rule:evenodd;fill:#035998;}
</style>
<g>
	<path class="st0" d="M142.8,28C111,28,85.2,55.2,85.2,88.9s25.8,60.8,57.5,60.8c30.6,0,55.6-25.3,57.4-57.2l-51.5,20.2
		c-40.7,17.5-35.4-63-5.3-51.7l56.4,20.3C196.3,51.3,172.2,28,142.8,28z"/>
	<path class="st1" d="M79.6,28.5c-31.8,0-57.5,27.2-57.5,60.9s25.7,60.8,57.5,60.8c30.6,0,55.6-25.3,57.4-57.2l-51.4,20.2
		c-40.8,17.5-35.4-63-5.3-51.7l56.4,20.3C133.2,51.8,109,28.5,79.6,28.5z"/>
</g>
</svg>
