<svg xmlns="http://www.w3.org/2000/svg" id="Camada_2" viewBox="0 0 749.31 122.2"><defs><style>.cls-1,.cls-2{fill:#035998;}.cls-3{fill:#ed730c;}.cls-3,.cls-2{fill-rule:evenodd;}</style></defs><g id="Camada_1-2"><g><path class="cls-3" d="M120.69,0c-31.75,0-57.53,27.21-57.53,60.86s25.78,60.82,57.53,60.82,55.59-25.27,57.44-57.16l-51.51,20.16c-40.71,17.46-35.36-63.03-5.3-51.68l56.44,20.31C174.26,23.3,150.07,0,120.69,0"></path><path class="cls-2" d="M57.49,.53C25.73,.53,0,27.74,0,61.39s25.73,60.81,57.49,60.81,55.63-25.26,57.42-57.15l-51.44,20.17c-40.77,17.45-35.36-63.04-5.3-51.69l56.44,20.33C111.11,23.83,86.88,.53,57.49,.53"></path><path class="cls-2" d="M239.48,74.84v.89c0,.15,0,.23-.08,.37,0,.15,0,.23-.07,.29,0,.15,0,.23-.07,.29,0,.08-.08,.16-.15,.22h.07c-.07,.14-.15,.23-.21,.31-.08,.06-.16,.22-.3,.29-.08,.14-.22,.22-.44,.45-.22,.14-.51,.29-.81,.51-.37,.23-.74,.44-1.19,.66-.37,.15-.8,.37-1.24,.59-.53,.15-1.04,.37-1.63,.51-.51,.16-1.11,.29-1.7,.45-.66,.15-1.33,.29-1.98,.29-.67,.07-1.4,.14-2.14,.14-1.33,0-2.51-.14-3.7-.29-1.17-.23-2.2-.6-3.24-1.04-1.1-.37-2.06-.96-2.94-1.55-.82-.67-1.63-1.4-2.36-2.22-.74-.81-1.41-1.78-2-2.81-.52-1.03-1.03-2.14-1.4-3.4-.37-1.27-.67-2.59-.88-3.99-.23-1.41-.3-2.89-.3-4.5s.16-3.18,.3-4.59c.21-1.48,.59-2.88,.96-4.14,.44-1.26,.97-2.45,1.55-3.56,.59-1.1,1.26-2.07,2.06-2.96,.74-.88,1.55-1.7,2.51-2.37,.88-.74,1.92-1.26,2.95-1.77,1.11-.45,2.21-.82,3.38-1.04,1.19-.21,2.36-.37,3.7-.37,.57,0,1.1,0,1.68,.08,.51,.08,1.1,.15,1.62,.24,.52,.14,1.03,.22,1.55,.35,.51,.15,1.04,.3,1.47,.46,.45,.2,.88,.35,1.25,.59,.45,.14,.82,.36,1.19,.58,.37,.22,.66,.36,.87,.59,.3,.14,.46,.29,.6,.44,.15,.15,.29,.3,.37,.37,.07,.14,.15,.23,.23,.29,.07,.08,.07,.24,.14,.3,0,.08,.07,.15,.07,.3,0,.07,.08,.23,.08,.29,0,.16,0,.31,.07,.37v2.07c-.07,.14-.07,.29-.14,.37,0,.15-.07,.31-.07,.37-.08,.15-.14,.22-.14,.29-.08,.08-.16,.14-.23,.23-.08,.08-.16,.08-.21,.14-.15,0-.23,.07-.3,.07-.22,0-.37-.07-.6-.21-.21-.08-.43-.23-.73-.44-.22-.23-.51-.37-.81-.6-.38-.22-.74-.44-1.1-.67-.37-.29-.81-.51-1.34-.73-.43-.15-.95-.38-1.55-.6-.51-.13-1.18-.29-1.84-.44-.66-.07-1.4-.15-2.13-.15-.9,0-1.71,.08-2.52,.29-.74,.16-1.48,.45-2.14,.74-.74,.37-1.33,.74-1.92,1.26-.66,.53-1.17,1.11-1.62,1.79-.51,.66-.96,1.4-1.33,2.21-.45,.82-.74,1.71-1.02,2.66-.23,.96-.44,2-.6,3.11-.14,1.11-.21,2.3-.21,3.49,0,2.51,.3,4.65,.82,6.57,.21,.88,.57,1.77,.96,2.51,.37,.81,.8,1.55,1.25,2.15,.51,.67,1.03,1.19,1.62,1.7,.66,.44,1.26,.8,1.99,1.17,.73,.3,1.47,.52,2.28,.75,.82,.14,1.64,.22,2.6,.22,.73,0,1.46-.08,2.14-.14,.66-.07,1.24-.23,1.83-.45,.6-.14,1.11-.38,1.56-.58,.51-.22,.94-.46,1.33-.68,.44-.21,.81-.43,1.1-.66,.37-.22,.67-.44,.88-.57,.3-.23,.51-.38,.74-.46,.29-.14,.44-.23,.67-.23,.06,0,.14,.08,.21,.08,.07,0,.15,.06,.23,.06,.07,.08,.14,.15,.21,.22,.08,.08,.08,.14,.14,.23,0,.14,.07,.21,.07,.36,0,.16,.08,.3,.08,.45v1.1Zm-.51-30.31v.08m36.65,33.87c.07,.29,.14,.44,.2,.66,.08,.15,.08,.37,.08,.51,0,.16,0,.3-.08,.46-.06,.14-.13,.21-.2,.29-.08,.13-.23,.22-.37,.22-.15,.07-.36,.14-.61,.14-.14,0-.35,0-.66,.08h-1.62c-.29-.08-.51-.08-.74-.08-.15,0-.3,0-.43-.07-.14,0-.31-.07-.45-.07-.07-.08-.22-.08-.29-.16-.08-.06-.15-.14-.22-.21-.08-.07-.08-.14-.15-.22,0-.08-.07-.15-.16-.3l-3.31-9.39h-15.93l-3.17,9.25c0,.14-.07,.22-.07,.29-.07,.07-.07,.23-.15,.29-.07,.07-.15,.14-.22,.23-.07,.06-.21,.06-.29,.13-.14,.08-.23,.08-.45,.16-.14,0-.29,.07-.43,.07-.22,0-.38,0-.67,.08h-1.55c-.23-.08-.44-.08-.67-.08-.23-.07-.36-.07-.5-.14-.16-.08-.3-.16-.38-.22-.07-.08-.15-.23-.22-.37-.07-.08-.07-.23-.07-.44,0-.16,.07-.3,.07-.53,.07-.14,.16-.35,.22-.58l13.05-36.38c.06-.14,.13-.23,.22-.37,0-.06,.07-.14,.14-.29,.07-.08,.23-.15,.3-.24,.15,0,.23-.07,.37-.13,.15,0,.29-.08,.52-.08,.14-.08,.29-.08,.51-.08s.44-.06,.74-.06h1.62c.3,0,.59,.06,.81,.06,.15,0,.38,0,.58,.08,.16,0,.3,.08,.45,.08,.15,.07,.29,.13,.37,.13,.16,.09,.23,.24,.3,.3,.15,.07,.23,.16,.23,.29,.07,.07,.14,.22,.23,.29l13.05,36.38Zm-17.05-31.42l-6.41,18.7h12.97l-6.57-18.7Zm49.64,32.59v.23c0,.15-.09,.23-.09,.29-.05,.07-.14,.14-.21,.23-.07,.06-.14,.13-.29,.13-.08,.08-.23,.08-.37,.16-.14,0-.37,.07-.53,.07-.21,0-.43,0-.65,.08h-.82c-.5,0-.96,0-1.33-.08-.14,0-.3-.07-.44-.07-.14-.07-.29-.07-.37-.16h-.08c-.07-.08-.22-.13-.3-.22-.07-.07-.15-.14-.22-.21-.07-.08-.14-.23-.14-.3h-.08c0-.16-.08-.22-.08-.37l-3.61-9.24c-.23-.52-.44-1.04-.66-1.47-.24-.44-.46-.97-.67-1.41-.23-.37-.44-.81-.73-1.18-.23-.38-.52-.67-.82-1.04-.3-.3-.67-.6-1.03-.81-.3-.23-.74-.45-1.11-.6-.44-.14-.88-.29-1.32-.37-.51-.06-1.04-.14-1.62-.14h-3.33v16.77c-.06,.08-.06,.16-.14,.23-.08,.07-.16,.14-.22,.23-.07,.06-.15,.13-.3,.13-.08,.08-.22,.08-.36,.16-.16,0-.31,0-.45,.07-.22,0-.37,0-.59,.08h-1.4c-.22-.08-.45-.08-.59-.08-.15-.07-.37-.07-.44-.07-.14-.07-.3-.07-.36-.16-.14,0-.23-.08-.37-.13-.07-.08-.15-.16-.22-.23,0-.07-.08-.14-.08-.23-.06-.14-.06-.21-.06-.3V43.35c0-.8,.21-1.48,.74-1.77,.22-.23,.43-.29,.66-.45,.23-.07,.52-.07,.74-.07h9.66c.45,0,.82,0,1.19,.07,.44,0,.96,.07,1.4,.07l.36,.09c.75,.15,1.49,.29,2.15,.51,.66,.22,1.33,.46,1.92,.75,.59,.29,1.09,.57,1.62,.96,.43,.36,.95,.8,1.32,1.25,.44,.44,.74,.88,1.04,1.4,.36,.52,.59,1.03,.82,1.62,.14,.6,.37,1.19,.44,1.79,.07,.66,.15,1.32,.15,1.99s-.08,1.32-.15,1.92c-.07,.58-.24,1.18-.44,1.7-.16,.51-.39,1.05-.59,1.48-.3,.52-.59,.97-.97,1.33-.3,.45-.67,.81-1.1,1.11-.37,.37-.81,.74-1.33,1.03-.44,.31-.97,.52-1.47,.81-.37,.15-.73,.3-1.19,.52,.15,.07,.3,.15,.53,.22,.29,.23,.51,.44,.8,.67,.3,.22,.53,.45,.82,.67,.23,.29,.44,.6,.67,.89,.3,.29,.51,.66,.74,1.03,.23,.3,.36,.67,.59,1.11,.22,.37,.44,.82,.58,1.26,.23,.44,.45,.88,.67,1.41l3.46,8.65c.15,.37,.3,.67,.37,.88,.07,.3,.16,.51,.21,.67,0,.14,.09,.3,.09,.37v.36Zm-8.2-27.49c0-.81-.13-1.47-.29-2.06-.14-.67-.37-1.26-.74-1.77-.3-.45-.73-.9-1.31-1.27-.53-.37-1.2-.66-2-.89-.23-.08-.52-.14-.82-.21-.21,0-.51-.08-.88-.08-.3-.08-.67-.08-1.04-.08h-5.61v12.72h4.87c1.4,0,2.51-.14,3.54-.45,.45-.14,.89-.36,1.32-.58,.37-.24,.75-.53,1.04-.82,.37-.23,.59-.6,.88-.89,.23-.38,.37-.73,.52-1.1,.14-.37,.29-.81,.37-1.18,.08-.43,.13-.88,.13-1.34m41.82,27.49c0,.08,0,.16-.07,.23,0,.15,0,.23-.07,.29,0,.07-.08,.14-.23,.23-.07,.06-.14,.13-.3,.13-.08,.08-.22,.08-.36,.16-.15,0-.3,.07-.53,.07-.14,0-.36,0-.65,.08h-.82c-.51,0-.96,0-1.31-.08-.16,0-.3-.07-.46-.07-.13-.07-.29-.07-.36-.16-.14-.08-.23-.13-.29-.22-.15-.07-.22-.14-.3-.21-.07-.08-.07-.23-.14-.3-.08-.16-.08-.22-.15-.37l-3.61-9.24c-.23-.52-.36-1.04-.58-1.47-.24-.44-.45-.97-.67-1.41-.22-.37-.51-.81-.74-1.18-.29-.38-.59-.67-.88-1.04-.29-.3-.59-.6-.96-.81-.36-.23-.73-.45-1.17-.6-.37-.14-.82-.29-1.33-.37-.52-.06-1.04-.14-1.62-.14h-3.24v16.47c0,.08,0,.16-.08,.3,0,.08-.08,.16-.08,.23h-.07c0,.07-.08,.14-.22,.23-.08,.06-.15,.13-.3,.13-.07,.08-.22,.08-.37,.16-.14,0-.29,0-.44,.07-.16,0-.37,0-.6,.08h-1.39c-.23-.08-.37-.08-.6-.08-.14-.07-.3-.07-.44-.07-.15-.07-.29-.07-.37-.16-.15,0-.21-.08-.29-.13-.08-.08-.22-.16-.22-.23-.07-.07-.07-.14-.15-.23V43.35c0-.8,.22-1.48,.66-1.77,.22-.23,.45-.29,.74-.45,.22-.07,.44-.07,.73-.07h9.67c.36,0,.74,0,1.1,.07,.43,0,.96,.07,1.41,.07l.37,.09c.73,.15,1.46,.29,2.13,.51,.74,.22,1.32,.46,1.91,.75,.58,.29,1.12,.57,1.63,.96,.51,.36,.95,.8,1.41,1.25,.37,.44,.72,.88,1.03,1.4,.3,.52,.51,1.03,.73,1.62,.22,.6,.37,1.19,.44,1.79,.15,.66,.15,1.32,.15,1.99s0,1.32-.15,1.92c-.07,.58-.22,1.18-.36,1.7-.22,.51-.45,1.05-.66,1.48-.29,.52-.59,.97-.88,1.33-.38,.45-.74,.81-1.1,1.11-.45,.37-.89,.74-1.33,1.03-.51,.31-.95,.52-1.55,.81-.36,.15-.73,.3-1.17,.52,.21,.07,.36,.15,.51,.22,.3,.23,.59,.44,.89,.67,.23,.22,.51,.45,.73,.67,.23,.29,.51,.6,.73,.89,.23,.29,.45,.66,.67,1.03,.23,.3,.45,.67,.66,1.11,.16,.37,.38,.82,.59,1.26,.23,.44,.38,.88,.59,1.41l3.54,8.65c.15,.37,.23,.67,.3,.88,.14,.3,.23,.51,.23,.67,.07,.14,.07,.3,.07,.37,.07,.14,.07,.3,.07,.36m-8.25-27.49c0-.81-.08-1.47-.23-2.06-.23-.67-.44-1.26-.82-1.77-.28-.45-.72-.9-1.25-1.27-.59-.37-1.24-.66-2.06-.89-.22-.08-.45-.14-.73-.21-.31,0-.59-.08-.89-.08-.29-.08-.67-.08-1.1-.08h-5.54v12.72h4.87c1.33,0,2.5-.14,3.46-.45,.45-.14,.97-.36,1.33-.58,.37-.24,.73-.53,1.1-.82,.3-.23,.59-.6,.81-.89,.23-.38,.45-.73,.59-1.1,.16-.37,.23-.81,.3-1.18,.07-.43,.15-.88,.15-1.34m37.54,26.1c0,.37-.08,.74-.08,1.04-.08,.14-.08,.22-.08,.36-.08,.16-.14,.23-.14,.38-.07,.08-.14,.14-.22,.29-.08,.08-.14,.08-.23,.14-.08,.08-.14,.08-.29,.16h-19.04c-.21,0-.51,0-.73-.08-.23-.13-.44-.22-.66-.43-.3-.16-.45-.37-.6-.74-.08-.3-.15-.66-.15-1.04V43.35c0-.8,.24-1.48,.75-1.77,.22-.23,.43-.29,.66-.45,.22-.07,.52-.07,.73-.07h18.52c.22,0,.44,0,.6,.13,.07,.09,.14,.09,.21,.24,.08,.07,.15,.14,.15,.23,.08,.13,.15,.2,.15,.35s.08,.24,.08,.38c.07,.15,.07,.36,.07,.51v1.11c0,.14,0,.29-.07,.44,0,.13-.08,.29-.08,.36-.08,.15-.08,.23-.15,.37,0,.08-.07,.16-.15,.22-.08,.07-.14,.16-.21,.23-.07,.08-.16,.08-.29,.08-.08,.06-.15,.06-.3,.06h-15.05v11.84h12.92c.08,0,.22,.07,.29,.07s.15,.06,.29,.16c.09,.06,.14,.06,.14,.14,.07,.06,.16,.21,.22,.3,.08,.07,.08,.21,.16,.28,0,.16,.07,.31,.07,.44,.08,.3,.08,.61,.08,1.05,0,.38,0,.67-.08,.97,0,.13-.07,.29-.07,.36-.08,.14-.08,.23-.16,.36-.06,.08-.14,.16-.22,.23-.06,.07-.14,.14-.22,.14-.07,.08-.14,.08-.22,.16h-13.21v13.6h15.27c.22,0,.45,.07,.59,.14,.08,.08,.15,.16,.23,.23,.08,.08,.15,.14,.15,.22,.07,.08,.14,.22,.21,.38,0,.06,0,.21,.08,.37v.51c0,.15,.08,.37,.08,.52m34.5,1.39c0,.08-.06,.16-.06,.23,0,.15,0,.23-.08,.29,0,.07-.08,.14-.22,.23-.07,.06-.15,.13-.29,.13-.08,.08-.22,.08-.37,.16-.15,0-.3,.07-.51,.07-.16,0-.37,0-.67,.08h-.81c-.51,0-.96,0-1.33-.08-.15,0-.29-.07-.44-.07-.16-.07-.3-.07-.37-.16-.15-.08-.23-.13-.38-.22-.07-.07-.14-.14-.21-.21-.08-.08-.16-.23-.16-.3-.06-.16-.13-.22-.13-.37l-3.62-9.24c-.23-.52-.44-1.04-.58-1.47-.23-.44-.45-.97-.74-1.41-.23-.37-.45-.81-.67-1.18-.28-.38-.59-.67-.88-1.04-.3-.3-.59-.6-.96-.81-.37-.23-.73-.45-1.17-.6-.37-.14-.81-.29-1.33-.37-.51-.06-1.03-.14-1.61-.14h-3.24v16.47c0,.08-.08,.16-.08,.3,0,.08-.08,.16-.15,.23,0,.07-.15,.14-.22,.23-.07,.06-.15,.13-.3,.13-.06,.08-.21,.08-.36,.16-.14,0-.3,0-.45,.07-.15,0-.37,0-.57,.08h-1.42c-.22-.08-.44-.08-.59-.08-.15-.07-.3-.07-.44-.07-.15-.07-.3-.07-.38-.16-.13,0-.21-.08-.29-.13-.14-.08-.22-.16-.22-.23-.08-.07-.14-.14-.14-.23V43.35c0-.8,.23-1.48,.66-1.77,.23-.23,.45-.29,.66-.45,.3-.07,.52-.07,.81-.07h9.66c.37,0,.74,0,1.11,.07,.43,0,.95,.07,1.39,.07l.37,.09c.73,.15,1.48,.29,2.14,.51,.67,.22,1.33,.46,1.93,.75,.57,.29,1.09,.57,1.62,.96,.51,.36,.96,.8,1.33,1.25,.44,.44,.81,.88,1.11,1.4,.3,.52,.5,1.03,.73,1.62,.23,.6,.36,1.19,.45,1.79,.07,.66,.14,1.32,.14,1.99s0,1.32-.14,1.92c-.09,.58-.22,1.18-.37,1.7-.22,.51-.45,1.05-.66,1.48-.29,.52-.6,.97-.89,1.33-.37,.45-.74,.81-1.19,1.11-.36,.37-.81,.74-1.25,1.03-.51,.31-1.04,.52-1.53,.81-.39,.15-.76,.3-1.2,.52,.23,.07,.37,.15,.51,.22,.3,.23,.6,.44,.83,.67,.27,.22,.57,.45,.8,.67,.23,.29,.52,.6,.73,.89,.22,.29,.45,.66,.67,1.03,.22,.3,.44,.67,.59,1.11,.22,.37,.45,.82,.67,1.26,.14,.44,.37,.88,.6,1.41l3.45,8.65c.14,.37,.3,.67,.37,.88,.08,.3,.14,.51,.22,.67,0,.14,.08,.3,.08,.37,0,.14,.06,.3,.06,.36m-8.24-27.49c0-.81-.08-1.47-.31-2.06-.14-.67-.37-1.26-.74-1.77-.29-.45-.73-.9-1.32-1.27-.51-.37-1.18-.66-1.99-.89-.23-.08-.52-.14-.74-.21-.29,0-.58-.08-.88-.08-.37-.08-.66-.08-1.09-.08h-5.52v12.72h4.85c1.33,0,2.5-.14,3.46-.45,.45-.14,.88-.36,1.33-.58,.37-.24,.74-.53,1.11-.82,.29-.23,.57-.6,.8-.89,.23-.38,.45-.73,.61-1.1,.14-.37,.22-.81,.3-1.18,.06-.43,.14-.88,.14-1.34m44.99,26.32c.07,.29,.13,.44,.22,.66,0,.15,.08,.37,.08,.51,0,.16,0,.3-.08,.46-.08,.14-.15,.21-.22,.29-.15,.13-.23,.22-.37,.22-.15,.07-.37,.14-.59,.14-.15,0-.37,0-.67,.08h-1.62c-.3-.08-.52-.08-.75-.08-.14,0-.29,0-.43-.07-.16,0-.29-.07-.45-.07-.07-.08-.23-.08-.29-.16-.08-.06-.14-.14-.23-.21-.07-.07-.07-.14-.14-.22-.07-.08-.07-.15-.14-.3l-3.33-9.39h-15.91l-3.17,9.25c0,.14-.08,.22-.08,.29-.06,.07-.06,.23-.14,.29-.07,.07-.14,.14-.22,.23-.07,.06-.21,.06-.29,.13-.14,.08-.29,.08-.45,.16-.13,0-.3,.07-.44,.07-.22,0-.37,0-.67,.08h-1.53c-.23-.08-.45-.08-.67-.08-.23-.07-.38-.07-.51-.14-.14-.08-.3-.16-.37-.22-.15-.08-.23-.23-.23-.37-.07-.08-.07-.23-.07-.44,0-.16,0-.3,.07-.53,.08-.14,.16-.35,.23-.58l13.05-36.38c.08-.14,.16-.23,.16-.37,.07-.06,.14-.14,.2-.29,.08-.08,.23-.15,.31-.24,.14,0,.21-.07,.36-.13,.14,0,.29-.08,.45-.08,.22-.08,.37-.08,.59-.08,.24,0,.44-.06,.73-.06h1.63c.3,0,.51,.06,.73,.06s.45,0,.6,.08c.23,0,.37,.08,.51,.08,.15,.07,.29,.13,.37,.13,.15,.09,.22,.24,.29,.3,.15,.07,.15,.16,.23,.29,.08,.07,.14,.22,.14,.29l13.14,36.38Zm-17.05-31.42l-6.42,18.7h12.98l-6.57-18.7Zm63.66,27.79v.89c0,.15-.09,.23-.09,.37s0,.23-.06,.29c0,.15-.08,.23-.08,.29,0,.08-.07,.16-.15,.22,0,.14-.08,.23-.14,.31-.08,.06-.17,.22-.29,.29-.08,.14-.31,.22-.53,.45-.23,.14-.44,.29-.81,.51-.3,.23-.66,.44-1.11,.66-.37,.15-.82,.37-1.33,.59-.44,.15-.95,.37-1.53,.51-.53,.16-1.11,.29-1.77,.45-.6,.15-1.25,.29-1.94,.29-.73,.07-1.39,.14-2.14,.14-1.32,0-2.51-.14-3.68-.29-1.18-.23-2.3-.6-3.32-1.04-1.03-.37-1.98-.96-2.88-1.55-.89-.67-1.69-1.4-2.43-2.22-.67-.81-1.32-1.78-1.92-2.81-.51-1.03-1.03-2.14-1.4-3.4-.37-1.27-.67-2.59-.88-3.99-.22-1.41-.29-2.89-.29-4.5s.07-3.18,.29-4.59c.21-1.48,.51-2.88,.97-4.14,.43-1.26,.94-2.45,1.54-3.56,.58-1.1,1.25-2.07,1.99-2.96,.82-.88,1.62-1.7,2.59-2.37,.88-.74,1.85-1.26,2.95-1.77,1.03-.45,2.22-.82,3.39-1.04,1.18-.21,2.37-.37,3.69-.37,.58,0,1.11,0,1.71,.08,.51,.08,1.1,.15,1.61,.24,.51,.14,1.04,.22,1.57,.35,.51,.15,.94,.3,1.46,.46,.44,.2,.89,.35,1.26,.59,.43,.14,.8,.36,1.19,.58,.35,.22,.66,.36,.87,.59,.3,.14,.45,.29,.59,.44,.14,.15,.31,.3,.37,.37,.07,.14,.15,.23,.24,.29,0,.08,.06,.24,.14,.3,0,.08,0,.15,.08,.3,0,.07,0,.23,.07,.29,0,.16,0,.31,.08,.37v.97c0,.43,0,.8-.08,1.1,0,.14,0,.29-.07,.37,0,.15-.08,.31-.08,.37-.08,.15-.14,.22-.14,.29-.08,.08-.17,.14-.24,.23-.06,.08-.14,.08-.29,.14-.08,0-.14,.07-.23,.07-.22,0-.37-.07-.66-.21-.16-.08-.45-.23-.66-.44-.31-.23-.53-.37-.9-.6-.29-.22-.66-.44-1.04-.67-.43-.29-.8-.51-1.31-.73-.45-.15-.97-.38-1.55-.6-.6-.13-1.19-.29-1.85-.44-.66-.07-1.4-.15-2.22-.15s-1.61,.08-2.43,.29c-.74,.16-1.48,.45-2.14,.74-.75,.37-1.41,.74-1.98,1.26-.61,.53-1.12,1.11-1.63,1.79-.45,.66-.88,1.4-1.31,2.21-.39,.82-.67,1.71-.97,2.66-.29,.96-.46,2-.6,3.11-.14,1.11-.23,2.3-.23,3.49,0,2.51,.23,4.65,.83,6.57,.21,.88,.51,1.77,.97,2.51,.35,.81,.8,1.55,1.23,2.15,.51,.67,1.05,1.19,1.63,1.7,.6,.44,1.26,.8,2,1.17,.72,.3,1.46,.52,2.28,.75,.81,.14,1.62,.22,2.52,.22,.8,0,1.54-.08,2.2-.14,.66-.07,1.25-.23,1.85-.45,.51-.14,1.11-.38,1.55-.58,.51-.22,.94-.46,1.32-.68,.45-.21,.82-.43,1.1-.66,.37-.22,.68-.44,.89-.57,.29-.23,.51-.38,.73-.46,.23-.14,.45-.23,.66-.23,.08,0,.17,.08,.23,.08,.07,0,.15,.06,.24,.06,.06,.08,.14,.15,.22,.22,.07,.08,.07,.14,.14,.23,0,.14,.06,.21,.06,.36,0,.16,0,.3,.09,.45v1.1Zm36.13,3.63c.07,.29,.15,.44,.22,.66,0,.15,.08,.37,.08,.51,0,.16,0,.3-.08,.46-.07,.14-.15,.21-.22,.29-.15,.13-.23,.22-.44,.22-.16,.07-.29,.14-.51,.14-.16,0-.37,0-.66,.08h-1.62c-.31-.08-.53-.08-.76-.08-.14,0-.27,0-.44-.07-.22,0-.29-.07-.43-.07-.16-.08-.23-.08-.3-.16-.07-.06-.15-.14-.22-.21-.08-.07-.08-.14-.15-.22-.08-.08-.08-.15-.15-.3l-3.32-9.39h-15.94l-3.16,9.25c0,.14-.09,.22-.09,.29-.07,.07-.15,.23-.15,.29-.06,.07-.14,.14-.22,.23-.14,.06-.21,.06-.29,.13-.15,.08-.29,.08-.44,.16-.14,0-.29,.07-.45,.07-.22,0-.44,0-.67,.08h-1.55c-.2-.08-.45-.08-.66-.08-.23-.07-.39-.07-.51-.14-.16-.08-.3-.16-.37-.22-.16-.08-.23-.23-.23-.37-.08-.08-.08-.23-.08-.44,0-.16,0-.3,.08-.53,.07-.14,.07-.35,.23-.58l13.05-36.38c.07-.14,.15-.23,.15-.37,.06-.06,.14-.14,.22-.29,.07-.08,.23-.15,.29-.24,.15,0,.23-.07,.37-.13,.14,0,.29-.08,.44-.08,.22-.08,.37-.08,.59-.08,.24,0,.45-.06,.74-.06h1.62c.3,0,.53,.06,.76,.06,.21,0,.43,0,.58,.08,.22,0,.37,.08,.51,.08,.14,.07,.3,.13,.37,.13,.14,.09,.22,.15,.3,.3,.06,.07,.15,.16,.21,.29,.08,.07,.14,.22,.14,.29l13.13,36.38Zm-17.04-31.42l-6.41,18.7h12.99l-6.58-18.7Zm49.64,32.59v.23c0,.15-.08,.23-.08,.29-.08,.07-.15,.14-.21,.23-.08,.06-.24,.13-.31,.13-.14,.08-.22,.08-.36,.16-.15,0-.38,.07-.52,.07-.22,0-.45,0-.66,.08h-.82c-.6,0-1.03,0-1.33-.08-.15,0-.29-.07-.44-.07-.15-.07-.29-.07-.45-.16-.08-.08-.22-.13-.29-.22-.08-.07-.14-.14-.22-.21-.08-.08-.16-.23-.22-.3,0-.16-.07-.22-.15-.37l-3.54-9.24c-.22-.52-.45-1.04-.67-1.47-.22-.44-.44-.97-.66-1.41-.23-.37-.45-.81-.73-1.18-.23-.38-.53-.67-.81-1.04-.29-.3-.67-.6-1.04-.81-.36-.23-.73-.45-1.11-.6-.43-.14-.88-.29-1.39-.37-.45-.06-1.04-.14-1.56-.14h-3.31v16.77c-.08,.08-.08,.16-.15,.23-.08,.07-.14,.14-.23,.23-.08,.06-.22,.13-.29,.13-.15,.08-.23,.08-.37,.16-.15,0-.29,0-.44,.07-.22,0-.45,0-.59,.08h-1.41c-.23-.08-.45-.08-.59-.08-.22-.07-.37-.07-.51-.07-.08-.07-.23-.07-.37-.16-.08,0-.23-.08-.29-.13-.08-.08-.16-.16-.24-.23,0-.07-.06-.14-.06-.23-.08-.14-.08-.21-.08-.3V43.35c0-.8,.23-1.48,.75-1.77,.22-.23,.44-.29,.66-.45,.23-.07,.51-.07,.74-.07h9.66c.45,0,.82,0,1.1,.07,.52,0,.96,.07,1.48,.07l.29,.09h.07c.74,.15,1.48,.29,2.15,.51,.66,.22,1.32,.46,1.91,.75,.59,.29,1.11,.57,1.62,.96,.45,.36,.88,.8,1.33,1.25,.37,.44,.73,.88,1.04,1.4,.29,.52,.58,1.03,.82,1.62,.14,.6,.28,1.19,.43,1.79,.08,.66,.14,1.32,.14,1.99s-.06,1.32-.14,1.92c-.08,.58-.22,1.18-.43,1.7-.15,.51-.39,1.05-.68,1.48-.21,.52-.51,.97-.88,1.33-.29,.45-.73,.81-1.1,1.11-.36,.37-.81,.74-1.32,1.03-.45,.31-.96,.52-1.47,.81-.37,.15-.82,.3-1.18,.52,.14,.07,.3,.15,.44,.22,.29,.23,.59,.44,.88,.67,.29,.22,.51,.45,.81,.67,.23,.29,.45,.6,.66,.89,.22,.29,.45,.66,.66,1.03,.21,.3,.45,.67,.67,1.11,.22,.37,.45,.82,.59,1.26,.22,.44,.45,.88,.67,1.41l3.45,8.65c.14,.37,.23,.67,.39,.88,.06,.3,.14,.51,.21,.67,0,.14,0,.3,.08,.37v.36Zm-8.27-27.49c0-.81-.07-1.47-.22-2.06-.14-.67-.44-1.26-.73-1.77-.3-.45-.75-.9-1.34-1.27-.51-.37-1.25-.66-1.99-.89-.21-.08-.51-.14-.82-.21-.29,0-.58-.08-.88-.08-.29-.08-.67-.08-1.04-.08h-5.6v12.72h4.87c1.32,0,2.5-.14,3.46-.45,.51-.14,.96-.36,1.33-.58,.45-.24,.81-.53,1.1-.82,.37-.23,.6-.6,.82-.89,.29-.38,.44-.73,.59-1.1,.14-.37,.29-.81,.37-1.18,.07-.43,.07-.88,.07-1.34m45.36,26.1c0,.22-.08,.46-.08,.59-.08,.21-.08,.38-.14,.58-.08,.16-.15,.22-.29,.37-.07,.14-.15,.23-.29,.37-.08,.07-.22,.14-.37,.23-.16,.06-.29,.13-.44,.22-.08,0-.23,.07-.39,.07-.13,0-.28,.07-.43,.07h-1.69c-.22,0-.52-.07-.75-.07-.21,0-.43-.07-.66-.16-.22-.08-.44-.13-.59-.22-.23-.14-.45-.29-.59-.44-.36-.29-.73-.66-1.11-1.17-.14-.3-.36-.6-.58-.9-.14-.29-.37-.67-.6-1.11l-12.31-22.25c-.29-.59-.66-1.18-.96-1.78-.37-.59-.66-1.26-.96-1.84-.36-.67-.67-1.25-.96-1.85-.22-.37-.36-.74-.52-1.11v1.4c0,.73,0,1.47,.08,2.21v28.16c0,.08,0,.16-.08,.23v.07c0,.08,0,.16-.07,.23-.08,.07-.15,.14-.22,.23-.07,.06-.15,.13-.3,.13-.14,.08-.21,.08-.36,.16-.14,0-.3,0-.45,.07-.15,0-.36,0-.59,.08h-1.33c-.13-.08-.36-.08-.51-.08-.15-.07-.3-.07-.46-.07-.13-.07-.22-.07-.35-.16-.09-.08-.24-.08-.31-.13-.06-.08-.14-.16-.14-.23-.08-.07-.14-.14-.14-.29,0-.08-.08-.15-.08-.23V43.51c0-.45,.08-.84,.22-1.11,.14-.38,.29-.6,.59-.82,.22-.14,.46-.29,.74-.38,.23-.13,.52-.13,.81-.13h3.33c.22,.07,.44,.07,.66,.13,.23,0,.45,.09,.6,.24,.22,.07,.35,.14,.51,.29,.22,.14,.37,.29,.51,.45,.14,.15,.3,.37,.45,.58,.14,.22,.36,.45,.51,.75,.14,.21,.29,.51,.45,.8l9.51,17.22c.52,.97,1.11,2,1.63,2.96l.07,.08c.29,.52,.51,1.04,.81,1.48,.23,.51,.53,1.03,.73,1.49,.53,.95,1.04,2,1.55,2.88,.23,.51,.53,.96,.75,1.41l.29,.66v-1.56c0-.88-.08-1.7-.08-2.58v-26.25c0-.08,0-.14,.08-.23,0-.07,.07-.14,.07-.2v-.09c.08-.07,.15-.14,.22-.14,.08-.08,.23-.15,.29-.24,.08-.07,.23-.07,.38-.13,.14,0,.29,0,.44-.08h.58c.15-.08,.45-.08,.66-.08,.45,0,.82,.08,1.19,.08,.13,.08,.29,.08,.45,.08,.14,.07,.29,.13,.36,.13,.08,.09,.23,.15,.29,.24,.08,0,.15,.07,.15,.23,.07,.06,.14,.13,.14,.2,0,.08,.08,.15,.08,.23v36.15Zm32.08,0c0,.37,0,.74-.08,1.04,0,.14,0,.22-.08,.36,0,.16-.07,.23-.14,.38,0,.08-.08,.14-.15,.29-.07,.08-.14,.08-.23,.14-.08,.08-.22,.08-.29,.16h-19.03c-.29,0-.51,0-.73-.08-.22-.13-.51-.22-.74-.43-.21-.16-.36-.37-.51-.74-.08-.3-.15-.66-.15-1.04V43.35c0-.8,.21-1.48,.66-1.77,.23-.23,.52-.29,.74-.45,.22-.07,.44-.07,.73-.07h18.52c.21,0,.35,0,.58,.13,.08,.09,.14,.09,.22,.24,.08,.07,.16,.14,.16,.23,.07,.13,.07,.2,.14,.35,0,.16,.08,.24,.08,.38s.07,.36,.07,.51v1.11c0,.14-.07,.29-.07,.44,0,.13-.08,.29-.08,.36-.08,.15-.08,.23-.14,.37-.08,.08-.08,.16-.16,.22-.08,.07-.14,.16-.22,.23-.08,.08-.23,.08-.29,.08-.08,.06-.15,.06-.3,.06h-15.05v11.84h12.91c.08,0,.22,.07,.3,.07,.07,0,.14,.06,.21,.16,.08,.06,.16,.06,.23,.14,.08,.06,.14,.21,.23,.3,0,.07,.07,.21,.13,.28,0,.16,0,.31,.08,.44,0,.3,.08,.61,.08,1.05,0,.38-.08,.67-.08,.97-.08,.13-.08,.29-.08,.36-.07,.14-.13,.23-.13,.36-.08,.08-.15,.16-.23,.23-.07,.07-.15,.14-.23,.14-.07,.08-.14,.08-.21,.16h-13.21v13.6h15.26c.23,0,.37,.07,.59,.14,.08,.08,.16,.16,.23,.23,.08,.08,.08,.14,.15,.22,.07,.08,.14,.22,.14,.38,.08,.06,.08,.21,.08,.37,.08,.14,.08,.29,.08,.51v.52Zm13.72,1.39c0,.08-.08,.16-.08,.3,0,.08-.08,.16-.15,.23,0,.07-.06,.14-.22,.23-.08,.06-.13,.13-.29,.13-.07,.08-.22,.08-.36,.16-.14,0-.3,0-.45,.07-.22,0-.37,0-.59,.08h-1.41c-.23-.08-.36-.08-.59-.08-.14-.07-.29-.07-.45-.07-.14-.07-.29-.07-.36-.16-.14,0-.23-.08-.36-.13-.08-.08-.15-.16-.23-.23,0-.07-.08-.14-.08-.23,0-.14-.08-.21-.08-.3V42.02c0-.07,.08-.22,.08-.29,0-.06,.08-.14,.15-.22,.07-.07,.15-.15,.22-.22,.07-.09,.21-.15,.29-.15,.15-.07,.3-.07,.45-.14,.07,0,.22,0,.43-.08,.16,0,.38,0,.6-.06h1.33c.22,.06,.37,.06,.59,.06,.15,.08,.3,.08,.45,.08,.14,.08,.29,.08,.36,.14,.16,0,.22,.07,.29,.15,.16,.07,.22,.15,.22,.22,.08,.07,.15,.16,.15,.22,0,.14,.08,.23,.08,.29v37.62Zm36.41,0c0,.08,0,.16-.06,.23,0,.15,0,.23-.07,.29,0,.07-.08,.14-.23,.23-.08,.06-.14,.13-.3,.13-.07,.08-.23,.08-.35,.16-.16,0-.3,.07-.53,.07-.14,0-.37,0-.66,.08h-.81c-.53,0-.96,0-1.33-.08-.15,0-.29-.07-.45-.07-.13-.07-.29-.07-.36-.16-.14-.08-.22-.13-.29-.22-.14-.07-.22-.14-.29-.21-.08-.08-.08-.23-.15-.3-.08-.16-.08-.22-.14-.37l-3.62-9.24c-.14-.52-.37-1.04-.58-1.47-.24-.44-.45-.97-.67-1.41-.23-.37-.51-.81-.75-1.18-.29-.38-.58-.67-.86-1.04-.31-.3-.6-.6-.98-.81-.36-.23-.73-.45-1.17-.6-.37-.14-.82-.29-1.33-.37-.51-.06-1.04-.14-1.63-.14h-3.22v16.47c0,.08,0,.16-.08,.3,0,.08-.07,.16-.07,.23h-.08c0,.07-.08,.14-.23,.23-.08,.06-.14,.13-.29,.13-.07,.08-.22,.08-.38,.16-.13,0-.29,0-.43,.07-.15,0-.37,0-.6,.08h-1.41c-.22-.08-.36-.08-.58-.08-.15-.07-.3-.07-.44-.07-.17-.07-.3-.07-.38-.16-.14,0-.21-.08-.29-.13-.07-.08-.15-.16-.21-.23-.08-.07-.08-.14-.16-.23V43.35c0-.8,.22-1.48,.66-1.77,.21-.23,.45-.29,.74-.45,.23-.07,.44-.07,.73-.07h9.67c.37,0,.81,0,1.09,.07,.45,0,.97,.07,1.41,.07l.37,.09c.73,.15,1.47,.29,2.13,.51,.74,.22,1.33,.46,1.91,.75,.6,.29,1.11,.57,1.62,.96,.52,.36,.96,.8,1.41,1.25,.37,.44,.74,.88,1.03,1.4,.31,.52,.51,1.03,.74,1.62,.23,.6,.37,1.19,.45,1.79,.14,.66,.14,1.32,.14,1.99s0,1.32-.14,1.92c-.08,.58-.22,1.18-.37,1.7-.22,.51-.45,1.05-.67,1.48-.29,.52-.58,.97-.88,1.33-.37,.45-.73,.81-1.1,1.11-.45,.37-.88,.74-1.34,1.03-.51,.31-.94,.52-1.54,.81-.37,.15-.74,.3-1.17,.52,.2,.07,.36,.15,.51,.22,.29,.23,.59,.44,.88,.67,.22,.22,.51,.45,.73,.67,.23,.29,.52,.6,.74,.89,.21,.29,.44,.66,.66,1.03,.22,.3,.44,.67,.66,1.11,.15,.37,.37,.82,.58,1.26,.23,.44,.37,.88,.6,1.41l3.54,8.65c.08,.37,.23,.67,.3,.88,.15,.3,.23,.51,.23,.67,.07,.14,.07,.3,.07,.37,.06,.14,.06,.3,.06,.36m-8.25-27.49c0-.81-.07-1.47-.21-2.06-.23-.67-.45-1.26-.74-1.77-.36-.45-.82-.9-1.33-1.27-.6-.37-1.25-.66-2.06-.89-.23-.08-.46-.14-.74-.21-.29,0-.6-.08-.88-.08-.3-.08-.67-.08-1.1-.08h-5.53v12.72h4.86c1.33,0,2.5-.14,3.48-.45,.51-.14,.95-.36,1.32-.58,.36-.24,.71-.53,1.1-.82,.29-.23,.58-.6,.81-.89,.23-.38,.45-.73,.59-1.1,.15-.37,.23-.81,.29-1.18,.08-.43,.14-.88,.14-1.34m47.87,8.21c0,1.62-.07,3.1-.23,4.58-.2,1.42-.51,2.81-.87,4.07-.37,1.25-.82,2.44-1.41,3.56-.58,1.1-1.17,2.14-1.98,3.04-.75,.88-1.57,1.68-2.51,2.36-.97,.75-1.99,1.33-3.1,1.77-1.19,.51-2.36,.89-3.7,1.11-1.32,.21-2.72,.36-4.27,.36s-2.8-.08-4.12-.3c-1.26-.21-2.43-.59-3.55-1.03-1.1-.45-2.06-.96-2.94-1.62-.97-.67-1.71-1.4-2.43-2.29-.76-.82-1.33-1.77-1.84-2.81-.52-1.03-.98-2.22-1.35-3.47-.35-1.27-.58-2.6-.8-4-.14-1.48-.21-3.02-.21-4.65,0-3.12,.35-5.92,1.09-8.43,.38-1.26,.88-2.45,1.4-3.56,.6-1.1,1.26-2.07,2-2.96,.72-.88,1.61-1.7,2.58-2.43,.96-.68,1.99-1.26,3.11-1.71,1.09-.51,2.35-.88,3.68-1.1,1.33-.31,2.73-.38,4.21-.38s2.8,.07,4.05,.29c1.34,.23,2.52,.59,3.54,1.04,1.11,.46,2.06,.96,3.02,1.63,.88,.59,1.69,1.33,2.44,2.21,.67,.82,1.32,1.77,1.84,2.81,.5,1.03,.95,2.22,1.32,3.49,.37,1.17,.66,2.5,.8,3.89,.16,1.49,.23,2.97,.23,4.52m-5.91,.38c0-1.12,0-2.16-.14-3.19-.06-1.02-.2-1.99-.35-2.96-.23-.94-.51-1.83-.82-2.64-.29-.82-.67-1.57-1.18-2.23-.44-.67-.96-1.33-1.55-1.85-.58-.51-1.26-.96-1.99-1.4-.75-.38-1.63-.67-2.51-.82-.95-.23-2-.29-3.1-.29s-2.14,.06-3.1,.29c-.89,.23-1.69,.51-2.5,.95-.76,.37-1.41,.9-1.99,1.41-.66,.6-1.19,1.2-1.62,1.94-.44,.66-.89,1.4-1.26,2.21-.29,.82-.6,1.71-.81,2.67-.39,1.84-.59,3.84-.59,5.83,0,1.19,.08,2.29,.14,3.33,.06,1.04,.23,2.07,.45,3.03,.15,.96,.44,1.85,.74,2.66,.29,.8,.73,1.54,1.18,2.29,.44,.67,.95,1.26,1.54,1.79,.6,.51,1.26,1.02,1.98,1.39,.74,.38,1.57,.67,2.53,.82,.96,.23,1.99,.3,3.1,.3s2.13-.07,3.09-.3c.96-.23,1.77-.52,2.58-.96,.74-.37,1.41-.89,2.06-1.41,.6-.57,1.11-1.25,1.55-1.92,.51-.74,.88-1.47,1.26-2.29,.3-.82,.59-1.69,.74-2.66,.23-.97,.37-1.92,.43-2.88,.14-1.04,.14-2,.14-3.1"></path><path class="cls-1" d="M749.31,48.51c0,4.56-3.58,8.14-8.23,8.14s-8.28-3.58-8.28-8.14,3.68-8.04,8.28-8.04,8.23,3.58,8.23,8.04m-14.46,0c0,3.58,2.65,6.42,6.27,6.42s6.13-2.84,6.13-6.37-2.6-6.47-6.18-6.47-6.22,2.89-6.22,6.42m4.95,4.22h-1.86v-8.04c.74-.15,1.77-.24,3.09-.24,1.52,0,2.21,.24,2.79,.59,.44,.34,.78,.98,.78,1.76,0,.88-.69,1.57-1.67,1.86v.1c.79,.29,1.23,.88,1.47,1.96,.24,1.23,.39,1.72,.59,2.01h-2.01c-.25-.29-.39-1.03-.64-1.96-.15-.88-.64-1.27-1.67-1.27h-.88v3.24Zm.05-4.56h.88c1.03,0,1.86-.34,1.86-1.18,0-.74-.54-1.23-1.72-1.23-.49,0-.83,.05-1.03,.1v2.3Z"></path></g></g></svg>