<?xml version="1.0" encoding="utf-8"?>
<!-- Generator: Adobe Illustrator 27.4.1, SVG Export Plug-In . SVG Version: 6.00 Build 0)  -->
<svg version="1.1" id="katman_1" xmlns="http://www.w3.org/2000/svg" xmlns:xlink="http://www.w3.org/1999/xlink" x="0px" y="0px"
	 viewBox="0 0 52.6 35" style="enable-background:new 0 0 52.6 35;" xml:space="preserve">
<style type="text/css">
	.st0{fill-rule:evenodd;clip-rule:evenodd;fill:#FFFFFF;stroke:#207FC3;stroke-width:0.5;stroke-miterlimit:10;}
</style>
<path class="st0" d="M34.5,1.6C26,1.6,19,9,19,18c0,9.2,7,16.4,15.5,16.4c8.3,0,15.1-6.8,15.5-15.5l-14,5.5c-10.9,4.8-9.6-17-1.5-14
	l15.3,5.5C48.9,7.9,42.4,1.6,34.5,1.6"/>
<path class="st0" d="M17.5,1.8C9,1.8,2,9.3,2,18.2c0,9.2,7,16.4,15.5,16.4c8.3,0,15.1-6.8,15.5-15.5l-14,5.5
	c-10.9,4.8-9.6-17-1.5-14L32.8,16C31.9,8.2,25.3,1.8,17.5,1.8"/>
</svg>
