<?xml version="1.0" encoding="utf-8"?>
<!-- Generator: Adobe Illustrator 27.4.1, SVG Export Plug-In . SVG Version: 6.00 Build 0)  -->
<svg version="1.1" id="katman_1" xmlns="http://www.w3.org/2000/svg" xmlns:xlink="http://www.w3.org/1999/xlink" x="0px" y="0px"
	 viewBox="0 0 52.6 35" style="enable-background:new 0 0 52.6 35;" xml:space="preserve">
<style type="text/css">
	.st0{fill-rule:evenodd;clip-rule:evenodd;fill:#F27923;}
	.st1{fill-rule:evenodd;clip-rule:evenodd;fill:#00609C;}
</style>
<path class="st0" d="M34.2,0.4c-8.7,0-15.8,7.6-15.8,16.7c0,9.4,7.1,16.7,15.8,16.7c8.5,0,15.4-6.9,15.8-15.8l-14.3,5.6
	c-11.1,4.9-9.8-17.4-1.6-14.3l15.6,5.6C48.9,6.9,42.2,0.4,34.2,0.4"/>
<path class="st1" d="M16.8,0.7C8.1,0.7,1,8.2,1,17.4c0,9.4,7.1,16.7,15.8,16.7c8.5,0,15.4-6.9,15.8-15.8l-14.3,5.6
	C7.2,28.7,8.6,6.4,16.8,9.6l15.6,5.6C31.5,7.1,24.8,0.7,16.8,0.7"/>
</svg>
